<svg width="16" height="17" viewBox="0 0 16 17" fill="none" xmlns="http://www.w3.org/2000/svg">
<path d="M1.66602 8.50008C1.66602 5.51452 1.66602 4.02174 2.59351 3.09424C3.52101 2.16675 5.01379 2.16675 7.99935 2.16675C10.9849 2.16675 12.4777 2.16675 13.4052 3.09424C14.3327 4.02174 14.3327 5.51452 14.3327 8.50008C14.3327 11.4856 14.3327 12.9784 13.4052 13.9059C12.4777 14.8334 10.9849 14.8334 7.99935 14.8334C5.01379 14.8334 3.52101 14.8334 2.59351 13.9059C1.66602 12.9784 1.66602 11.4856 1.66602 8.50008Z" stroke="#009A84"/>
<path d="M8.16081 11.8333V8.49992C8.16081 8.18565 8.16081 8.02852 8.06314 7.93085C7.96554 7.83325 7.80841 7.83325 7.49414 7.83325" stroke="#009A84" stroke-linecap="round" stroke-linejoin="round"/>
<path d="M7.99414 5.83325H8.00014" stroke="#009A84" stroke-width="1.33333" stroke-linecap="round" stroke-linejoin="round"/>
</svg>
