<svg width="25" height="24" viewBox="0 0 25 24" fill="none" xmlns="http://www.w3.org/2000/svg">
<path d="M9.85693 17C9.85693 17.55 9.40693 18 8.85693 18C8.30693 18 7.85693 17.55 7.85693 17C7.85693 16.45 8.30693 16 8.85693 16C9.40693 16 9.85693 16.45 9.85693 17ZM12.8569 16C12.3069 16 11.8569 16.45 11.8569 17C11.8569 17.55 12.3069 18 12.8569 18C13.4069 18 13.8569 17.55 13.8569 17C13.8569 16.45 13.4069 16 12.8569 16ZM16.8569 16C16.3069 16 15.8569 16.45 15.8569 17C15.8569 17.55 16.3069 18 16.8569 18C17.4069 18 17.8569 17.55 17.8569 17C17.8569 16.45 17.4069 16 16.8569 16ZM19.8569 12V14H5.85693V12C5.85693 8.47 8.46693 5.57 11.8569 5.08V3H13.8569V5.08C17.2469 5.57 19.8569 8.47 19.8569 12ZM17.8569 12C17.8569 9.24 15.6169 7 12.8569 7C10.0969 7 7.85693 9.24 7.85693 12H17.8569ZM8.85693 19C8.30693 19 7.85693 19.45 7.85693 20C7.85693 20.55 8.30693 21 8.85693 21C9.40693 21 9.85693 20.55 9.85693 20C9.85693 19.45 9.40693 19 8.85693 19ZM12.8569 19C12.3069 19 11.8569 19.45 11.8569 20C11.8569 20.55 12.3069 21 12.8569 21C13.4069 21 13.8569 20.55 13.8569 20C13.8569 19.45 13.4069 19 12.8569 19ZM16.8569 19C16.3069 19 15.8569 19.45 15.8569 20C15.8569 20.55 16.3069 21 16.8569 21C17.4069 21 17.8569 20.55 17.8569 20C17.8569 19.45 17.4069 19 16.8569 19Z" fill="#009A84"/>
</svg>
