<svg width="25" height="24" viewBox="0 0 25 24" fill="none" xmlns="http://www.w3.org/2000/svg">
<path d="M9.19159 16.5001H15.3791C15.4822 16.5001 15.5666 16.4157 15.5666 16.3126V14.3438C15.5666 14.2407 15.4822 14.1563 15.3791 14.1563H14.4416C14.3385 14.1563 14.2541 14.2407 14.2541 14.3438V15.1876H10.3166V14.3438C10.3166 14.2407 10.2322 14.1563 10.1291 14.1563H9.19159C9.08847 14.1563 9.00409 14.2407 9.00409 14.3438V16.3126C9.00409 16.4157 9.08847 16.5001 9.19159 16.5001ZM17.1603 13.6173C17.1603 13.8659 17.2591 14.1044 17.4349 14.2802C17.6107 14.456 17.8492 14.5548 18.0978 14.5548C18.3465 14.5548 18.5849 14.456 18.7608 14.2802C18.9366 14.1044 19.0353 13.8659 19.0353 13.6173C19.0353 13.3686 18.9366 13.1302 18.7608 12.9544C18.5849 12.7786 18.3465 12.6798 18.0978 12.6798C17.8492 12.6798 17.6107 12.7786 17.4349 12.9544C17.2591 13.1302 17.1603 13.3686 17.1603 13.6173ZM22.7619 9.68916L22.2064 8.71885C22.1815 8.67607 22.1406 8.64492 22.0927 8.63218C22.0449 8.61945 21.9939 8.62617 21.951 8.65088L20.7627 9.34463L18.9275 4.27744C18.8306 3.97508 18.6402 3.71134 18.3836 3.5243C18.1271 3.33725 17.8177 3.23658 17.5002 3.23682H7.34472C6.53144 3.23682 5.80956 3.76182 5.55878 4.5376L3.81034 9.34697L2.61972 8.65322C2.57679 8.62851 2.52583 8.62179 2.47797 8.63453C2.4301 8.64726 2.38922 8.67842 2.36425 8.72119L1.80878 9.68916C1.75722 9.77822 1.78769 9.89072 1.87675 9.94229L3.29237 10.7673L2.95253 11.7048C2.92441 11.7798 2.91034 11.8595 2.91034 11.9392V20.1001C2.91034 20.4681 3.18691 20.7657 3.52675 20.7657H5.11112C5.39941 20.7657 5.65019 20.5478 5.71112 20.2431L5.89159 19.3595H18.6791L18.8596 20.2431C18.9228 20.5478 19.1713 20.7657 19.4596 20.7657H21.0439C21.3838 20.7657 21.6603 20.4681 21.6603 20.1001V11.9392C21.6603 11.8595 21.6463 11.7798 21.6182 11.7048L21.2783 10.7673L22.6916 9.94229C22.7341 9.91772 22.7653 9.87743 22.7785 9.8301C22.7916 9.78276 22.7857 9.73215 22.7619 9.68916ZM19.9728 12.1173V17.672H4.59784V12.1173L4.96347 11.1095H19.6072L19.9728 12.1173ZM7.1455 5.11182L7.15722 5.08135L7.16659 5.05088C7.19237 4.97354 7.26269 4.92197 7.34472 4.92197H17.3666L19.1338 9.79697H5.44159L7.1455 5.11182ZM5.53534 13.6173C5.53534 13.8659 5.63412 14.1044 5.80993 14.2802C5.98575 14.456 6.2242 14.5548 6.47284 14.5548C6.72148 14.5548 6.95994 14.456 7.13576 14.2802C7.31157 14.1044 7.41034 13.8659 7.41034 13.6173C7.41034 13.3686 7.31157 13.1302 7.13576 12.9544C6.95994 12.7786 6.72148 12.6798 6.47284 12.6798C6.2242 12.6798 5.98575 12.7786 5.80993 12.9544C5.63412 13.1302 5.53534 13.3686 5.53534 13.6173Z" fill="#009A84"/>
</svg>
