<svg width="25" height="24" viewBox="0 0 25 24" fill="none" xmlns="http://www.w3.org/2000/svg">
<path d="M20.4287 9.557V3H18.4287V5H6.42871V3H4.42871V9.557C3.23871 10.25 2.42871 11.525 2.42871 13V17C2.42871 17.2652 2.53407 17.5196 2.7216 17.7071C2.90914 17.8946 3.16349 18 3.42871 18H4.42871V22H6.42871V18H18.4287V22H20.4287V18H21.4287C21.6939 18 21.9483 17.8946 22.1358 17.7071C22.3234 17.5196 22.4287 17.2652 22.4287 17V13C22.4287 11.525 21.6177 10.25 20.4287 9.557ZM18.4287 7V9H13.4287V7H18.4287ZM6.42871 7H11.4287V9H6.42871V7ZM20.4287 16H4.42871V13C4.42871 11.897 5.32571 11 6.42871 11H18.4287C19.5317 11 20.4287 11.897 20.4287 13V16Z" fill="#009A84"/>
</svg>
