<svg width="25" height="24" viewBox="0 0 25 24" fill="none" xmlns="http://www.w3.org/2000/svg">
<path d="M4.64307 12C6.02378 12 7.14307 10.8807 7.14307 9.5C7.14307 8.11929 6.02378 7 4.64307 7C3.26235 7 2.14307 8.11929 2.14307 9.5C2.14307 10.8807 3.26235 12 4.64307 12Z" fill="#009A84"/>
<path d="M9.14307 8C10.5238 8 11.6431 6.88071 11.6431 5.5C11.6431 4.11929 10.5238 3 9.14307 3C7.76235 3 6.64307 4.11929 6.64307 5.5C6.64307 6.88071 7.76235 8 9.14307 8Z" fill="#009A84"/>
<path d="M15.1431 8C16.5238 8 17.6431 6.88071 17.6431 5.5C17.6431 4.11929 16.5238 3 15.1431 3C13.7624 3 12.6431 4.11929 12.6431 5.5C12.6431 6.88071 13.7624 8 15.1431 8Z" fill="#009A84"/>
<path d="M19.6431 12C21.0238 12 22.1431 10.8807 22.1431 9.5C22.1431 8.11929 21.0238 7 19.6431 7C18.2624 7 17.1431 8.11929 17.1431 9.5C17.1431 10.8807 18.2624 12 19.6431 12Z" fill="#009A84"/>
<path d="M17.4837 14.86C16.6137 13.84 15.8837 12.97 15.0037 11.95C14.5437 11.41 13.9537 10.87 13.2537 10.63C13.1437 10.59 13.0337 10.56 12.9237 10.54C12.6737 10.5 12.4037 10.5 12.1437 10.5C11.8837 10.5 11.6137 10.5 11.3537 10.55C11.2437 10.57 11.1337 10.6 11.0237 10.64C10.3237 10.88 9.7437 11.42 9.2737 11.96C8.4037 12.98 7.6737 13.85 6.7937 14.87C5.4837 16.18 3.8737 17.63 4.1737 19.66C4.4637 20.68 5.1937 21.69 6.5037 21.98C7.2337 22.13 9.5637 21.54 12.0437 21.54H12.2237C14.7037 21.54 17.0337 22.12 17.7637 21.98C19.0737 21.69 19.8037 20.67 20.0937 19.66C20.4037 17.62 18.7937 16.17 17.4837 14.86Z" fill="#009A84"/>
</svg>
