<svg width="25" height="24" viewBox="0 0 25 24" fill="none" xmlns="http://www.w3.org/2000/svg">
<g clip-path="url(#clip0_109_720)">
<path d="M21.5713 9V7C21.5713 5.35 20.2213 4 18.5713 4H14.5713C13.8013 4 13.1013 4.3 12.5713 4.78C12.0413 4.3 11.3413 4 10.5713 4H6.57129C4.92129 4 3.57129 5.35 3.57129 7V9C1.92129 9 0.571289 10.35 0.571289 12V17C0.571289 18.65 1.92129 20 3.57129 20V22H5.57129V20H19.5713V22H21.5713V20C23.2213 20 24.5713 18.65 24.5713 17V12C24.5713 10.35 23.2213 9 21.5713 9ZM14.5713 6H18.5713C19.1213 6 19.5713 6.45 19.5713 7V9.78C18.9613 10.33 18.5713 11.12 18.5713 12V14H13.5713V7C13.5713 6.45 14.0213 6 14.5713 6ZM5.57129 7C5.57129 6.45 6.02129 6 6.57129 6H10.5713C11.1213 6 11.5713 6.45 11.5713 7V14H6.57129V12C6.57129 11.12 6.18129 10.33 5.57129 9.78V7ZM22.5713 17C22.5713 17.55 22.1213 18 21.5713 18H3.57129C3.02129 18 2.57129 17.55 2.57129 17V12C2.57129 11.45 3.02129 11 3.57129 11C4.12129 11 4.57129 11.45 4.57129 12V16H20.5713V12C20.5713 11.45 21.0213 11 21.5713 11C22.1213 11 22.5713 11.45 22.5713 12V17Z" fill="#009A84"/>
</g>
<defs>
<clipPath id="clip0_109_720">
<rect width="24" height="24" fill="white" transform="translate(0.571289)"/>
</clipPath>
</defs>
</svg>
