<svg width="25" height="24" viewBox="0 0 25 24" fill="none" xmlns="http://www.w3.org/2000/svg">
<path d="M19.7141 2H9.71414C8.61114 2 7.71414 2.897 7.71414 4V9.586L3.00714 14.293C2.86733 14.4329 2.77213 14.611 2.73356 14.805C2.69499 14.9989 2.71479 15.2 2.79046 15.3827C2.86613 15.5654 2.99427 15.7215 3.15868 15.8314C3.32309 15.9413 3.51639 16 3.71414 16V21C3.71414 21.2652 3.8195 21.5196 4.00704 21.7071C4.19457 21.8946 4.44893 22 4.71414 22H20.7141C20.9794 22 21.2337 21.8946 21.4212 21.7071C21.6088 21.5196 21.7141 21.2652 21.7141 21V4C21.7141 2.897 20.8171 2 19.7141 2ZM11.7141 20H5.71414V14.414L8.71414 11.414L11.7141 14.414V20ZM19.7141 20H13.7141V16C13.9121 16.0004 14.1057 15.942 14.2705 15.8322C14.4352 15.7224 14.5636 15.5662 14.6393 15.3833C14.7151 15.2004 14.7348 14.9991 14.6959 14.805C14.6571 14.6109 14.5614 14.4327 14.4211 14.293L9.71414 9.586V4H19.7141V20Z" fill="#009A84"/>
<path d="M11.7144 6H13.7144V8H11.7144V6ZM15.7144 6H17.7144V8H15.7144V6ZM15.7144 10.031H17.7144V12H15.7144V10.031ZM15.7144 14H17.7144V16H15.7144V14ZM7.71436 15H9.71436V17H7.71436V15Z" fill="#009A84"/>
</svg>
