<svg width="168" height="32" viewBox="0 0 168 32" fill="none" xmlns="http://www.w3.org/2000/svg">
<g clip-path="url(#clip0_110_506)">
<path d="M62.0752 7.23176H63.4817V12.7389C64.2365 11.0537 66.9939 7.23047 71.3591 7.23047C76.061 7.23047 78.4933 9.97886 78.4933 14.4614V31.2382H73.8043V14.4614C73.8043 12.2305 72.5488 10.7053 69.9514 10.7053C66.5901 10.7053 64.0249 13.8769 63.483 14.8485V31.2382H58.7939V8.63692L62.0765 7.23047L62.0752 7.23176Z" fill="white"/>
<path d="M90.809 0.0571289H92.2154V7.701H97.4567V9.57713H92.2154V26.0171C92.2154 27.6481 93.0477 28.7668 94.7445 28.7668C96.2619 28.7668 96.9741 27.83 97.2954 27.4468L98.5058 28.1449C97.929 29.6223 96.0528 31.7074 92.8541 31.7074C89.2038 31.7074 87.5496 29.3784 87.5496 26.0158V9.57584H83.458V7.69971H87.5496V1.46487L90.809 0.0571289Z" fill="white"/>
<path d="M108.697 7.69995V23.4987C108.697 27.2096 110.687 28.6741 113.871 28.6741C116.791 28.6741 118.777 27.0161 119.432 25.6767V7.70124H124.076V31.2406H119.432V27.7877C118.692 29.4509 116.388 31.709 111.907 31.709C107.426 31.709 104.008 29.1541 104.008 23.5V7.70124H108.697V7.69995Z" fill="white"/>
<path d="M31.1213 0.761857L16.2452 31.9438H14.8374L-0.0361328 0.759277H5.15483L16.7303 25.4883L28.5239 0.761857H31.1213Z" fill="white"/>
<path d="M134.771 7.23047H136.177V12.7389C137.149 9.8395 140.547 7.23047 143.688 7.23047C145.142 7.23047 145.985 7.50918 146.265 7.70014C146.265 8.91821 146.265 12.3892 146.265 12.3892C145.626 11.9105 144.66 11.3505 142.86 11.3505C140.932 11.3505 137.897 12.3105 136.178 14.8485V31.2382H131.489V8.63692L134.772 7.23047H134.771Z" fill="white"/>
<path d="M42.4954 31.7083C40.9019 31.7083 39.4038 31.4464 38.0012 30.849C36.5986 30.2516 35.3767 29.4387 34.3354 28.4116C33.2928 27.3845 32.4696 26.178 31.8644 24.7909C31.2593 23.4038 30.9561 21.929 30.9561 20.3664C30.9561 18.4813 31.2322 16.738 31.7832 15.1367C32.3354 13.5354 33.1161 12.1522 34.1277 10.9871C35.1393 9.82189 36.3535 8.91093 37.7715 8.25157C39.1883 7.59222 40.7715 7.26318 42.5186 7.26318C44.0503 7.26318 45.4606 7.53544 46.7483 8.07866C48.0361 8.62318 49.1419 9.35092 50.0696 10.2619C50.9961 11.1742 51.7161 12.2271 52.2309 13.4232C52.7444 14.618 53.0012 16.1483 53.0012 17.4503H35.4619C35.4619 19.0283 35.6644 20.2116 36.0709 21.56C36.4773 22.9083 37.0477 24.0735 37.7832 25.0541C38.5186 26.0348 39.3922 26.8012 40.4038 27.3535C41.4154 27.9058 42.5264 28.1445 43.7367 28.1445C46.8993 28.1445 50.1638 26.2567 51.7909 23.8477L53.0012 24.5458C51.8503 27.1419 48.1496 31.7071 42.4954 31.7071V31.7083ZM47.1393 15.5754C47.1393 14.6864 45.7083 9.01028 41.329 9.01028C36.9496 9.01028 35.4851 14.5406 35.4851 15.5754H47.1393Z" fill="white"/>
<path d="M163.086 31.2394C163.086 31.2394 163.086 29.1297 163.086 28.0213C161.887 29.5723 158.94 31.709 155.589 31.709C151.318 31.709 149.041 29.1052 149.041 25.8845C149.041 19.4897 158.408 16.6136 163.086 16.0458V14.0445C163.086 12.1645 162.19 8.92581 158.949 8.92581C155.777 8.92581 154.695 12.2884 154.695 14.0445H150.006C150.006 9.08581 155.428 7.23291 159.007 7.23291C162.472 7.23291 167.775 8.78775 167.775 14.0445V31.2407H163.086V31.2394ZM163.086 17.451C157.253 18.7671 153.727 22.3748 153.727 25.091C153.727 27.1465 155.1 28.8574 157.733 28.8574C159.71 28.8574 161.961 27.4419 163.084 26.38V17.4523L163.086 17.451Z" fill="white"/>
</g>
<defs>
<clipPath id="clip0_110_506">
<rect width="167.742" height="32" fill="white"/>
</clipPath>
</defs>
</svg>
