<svg width="122" height="57" viewBox="0 0 122 57" fill="none" xmlns="http://www.w3.org/2000/svg">
<g clip-path="url(#clip0_89_606)">
<mask id="mask0_89_606" style="mask-type:luminance" maskUnits="userSpaceOnUse" x="-27" y="-35" width="175" height="126">
<path d="M-26.0566 -34.6571H147.407V90.8613H-26.0566V-34.6571Z" fill="white"/>
</mask>
<g mask="url(#mask0_89_606)">
<path d="M44.9062 25.0724H45.924V29.057C46.4704 27.8374 48.4647 25.0722 51.6229 25.0722C55.0243 25.0722 56.7838 27.0606 56.7838 30.3037V42.4414H53.3911V30.3037C53.3911 28.69 52.4825 27.586 50.6037 27.586C48.1722 27.586 46.3156 29.8803 45.924 30.5837V42.4414H42.5312V26.0901L44.9062 25.0724Z" fill="white"/>
<path d="M65.6954 19.8814H66.7133V25.4112H70.505V26.7683H66.7133V38.6621C66.7133 39.8418 67.3151 40.6516 68.5425 40.6516C69.6407 40.6516 70.1558 39.9742 70.3886 39.6971L71.2641 40.2025C70.8471 41.2717 69.4898 42.7803 67.1753 42.7803C64.5342 42.7803 63.3371 41.0954 63.3371 38.6621V26.7683H60.377V25.4112H63.3371V20.9003L65.6954 19.8814Z" fill="white"/>
<path d="M78.6368 25.4115V36.8414C78.6368 39.5266 80.0759 40.5853 82.3801 40.5853C84.493 40.5853 85.9293 39.3858 86.4034 38.4166V25.4115H89.7627V42.4414H86.4034V39.9433C85.8674 41.1468 84.2009 42.7805 80.9593 42.7805C77.7388 42.7805 75.2441 40.9321 75.2441 36.8414V25.4115H78.6368Z" fill="white"/>
<path d="M15.5909 55.1608H16.9252C17.0464 55.1608 17.1684 55.1447 17.2911 55.1124C17.4137 55.08 17.5242 55.0296 17.6225 54.9606C17.721 54.892 17.8012 54.8044 17.8632 54.698C17.9251 54.5915 17.9561 54.4626 17.9561 54.3118C17.9561 54.1878 17.9278 54.0691 17.8712 53.9559C17.8146 53.8427 17.7331 53.7444 17.6266 53.6608C17.5201 53.5773 17.3901 53.5106 17.2365 53.4607C17.0828 53.4109 16.9103 53.3858 16.719 53.3858H15.5909V55.1608ZM15.5909 52.5853H16.7876C16.9197 52.5853 17.0417 52.5644 17.1535 52.5227C17.2655 52.481 17.3618 52.4244 17.4427 52.3529C17.5235 52.2815 17.5861 52.1978 17.6307 52.1022C17.6751 52.0065 17.6974 51.906 17.6974 51.8008C17.6974 51.7039 17.6812 51.6156 17.6489 51.5362C17.6165 51.4566 17.5674 51.3872 17.5012 51.3279C17.4352 51.2685 17.3511 51.2227 17.2485 51.1903C17.1461 51.158 17.0262 51.1419 16.8888 51.1419H15.5909V52.5853ZM14.6367 50.3372H16.9211C17.1852 50.3372 17.4218 50.375 17.6307 50.4504C17.8395 50.5259 18.0162 50.6277 18.1603 50.7556C18.3045 50.8838 18.415 51.0327 18.4919 51.2025C18.5687 51.3723 18.6071 51.5529 18.6071 51.7442C18.6071 51.9815 18.5538 52.2019 18.4474 52.4053C18.3409 52.609 18.1798 52.7915 17.9642 52.9532C18.1368 53.026 18.2836 53.113 18.4049 53.2139C18.5262 53.3152 18.6253 53.4257 18.7021 53.5455C18.779 53.6655 18.8356 53.7929 18.872 53.9276C18.9083 54.0624 18.9265 54.1998 18.9265 54.3401C18.9265 54.5664 18.878 54.7794 18.7809 54.9789C18.684 55.1783 18.5538 55.3516 18.3908 55.4986C18.2277 55.6454 18.0397 55.7619 17.8268 55.8482C17.6139 55.9344 17.3928 55.9775 17.1636 55.9775H14.6367V50.3372Z" fill="white"/>
<path d="M22.7673 50.3372L25.1892 54.6271V50.3372H26.1434V55.9775H25.068L22.634 51.6472V55.9775H21.6797V50.3372H22.7673Z" fill="white"/>
<path d="M30.1983 55.1608H31.5326C31.6538 55.1608 31.7758 55.1447 31.8985 55.1124C32.0211 55.08 32.1316 55.0296 32.23 54.9606C32.3284 54.892 32.4086 54.8044 32.4706 54.698C32.5326 54.5915 32.5635 54.4626 32.5635 54.3118C32.5635 54.1878 32.5352 54.0691 32.4786 53.9559C32.422 53.8427 32.3405 53.7444 32.234 53.6608C32.1276 53.5773 31.9976 53.5106 31.8439 53.4607C31.6902 53.4109 31.5178 53.3858 31.3264 53.3858H30.1983V55.1608ZM30.1983 52.5853H31.395C31.5271 52.5853 31.6492 52.5644 31.761 52.5227C31.8729 52.481 31.9693 52.4244 32.0501 52.3529C32.1309 52.2815 32.1935 52.1978 32.2381 52.1022C32.2825 52.0065 32.3048 51.906 32.3048 51.8008C32.3048 51.7039 32.2887 51.6156 32.2563 51.5362C32.2239 51.4566 32.1748 51.3872 32.1087 51.3279C32.0427 51.2685 31.9585 51.2227 31.8559 51.1903C31.7535 51.158 31.6336 51.1419 31.4962 51.1419H30.1983V52.5853ZM29.2441 50.3372H31.5285C31.7926 50.3372 32.0292 50.375 32.2381 50.4504C32.447 50.5259 32.6236 50.6277 32.7678 50.7556C32.9119 50.8838 33.0224 51.0327 33.0993 51.2025C33.1761 51.3723 33.2145 51.5529 33.2145 51.7442C33.2145 51.9815 33.1613 52.2019 33.0548 52.4053C32.9483 52.609 32.7872 52.7915 32.5716 52.9532C32.7442 53.026 32.891 53.113 33.0124 53.2139C33.1337 53.3152 33.2327 53.4257 33.3095 53.5455C33.3864 53.6655 33.443 53.7929 33.4794 53.9276C33.5157 54.0624 33.5339 54.1998 33.5339 54.3401C33.5339 54.5664 33.4854 54.7794 33.3884 54.9789C33.2914 55.1783 33.1613 55.3516 32.9982 55.4986C32.8351 55.6454 32.6471 55.7619 32.4342 55.8482C32.2213 55.9344 32.0002 55.9775 31.771 55.9775H29.2441V50.3372Z" fill="white"/>
<path d="M40.093 50.3372L41.6699 54.7605L43.279 50.3372H44.3546V55.9775H43.4004V52.2537L42.1026 55.9775H41.2939L39.9717 52.2415V55.9775H39.0176V50.3372H40.093Z" fill="white"/>
<path d="M49.6937 51.5219L48.974 53.5274H50.4094L49.6937 51.5219ZM50.2516 50.3372L52.3137 55.9775H51.315L50.7084 54.3279H48.6789C48.5818 54.6002 48.4813 54.8751 48.3775 55.1527C48.2739 55.4304 48.1734 55.7053 48.0763 55.9775H47.0898L49.1518 50.3372H50.2516Z" fill="white"/>
<path d="M56.1365 50.3372L58.5584 54.6271L58.5583 50.3372H59.5126V55.9775H58.4371L56.0031 51.6472V55.9775H55.0488V50.3372H56.1365Z" fill="white"/>
<path d="M64.8519 51.5219L64.1322 53.5274H65.5676L64.8519 51.5219ZM65.4098 50.3372L67.4719 55.9775H66.4732L65.8666 54.3279H63.8371C63.7401 54.6002 63.6398 54.8751 63.5359 55.1527C63.4321 55.4304 63.3316 55.7053 63.2347 55.9775H62.248L64.31 50.3372H65.4098Z" fill="white"/>
<path d="M70.4912 53.1595C70.4912 53.5072 70.5358 53.8153 70.6246 54.0835C70.7136 54.3517 70.8342 54.5773 70.9866 54.7606C71.1387 54.9439 71.3161 55.0835 71.5182 55.179C71.7204 55.2748 71.9347 55.3226 72.1611 55.3226C72.3471 55.3226 72.5291 55.2768 72.707 55.1852C72.8848 55.0936 73.0457 54.9717 73.19 54.8194C73.3342 54.667 73.4549 54.491 73.552 54.2916C73.649 54.0922 73.7096 53.8846 73.734 53.669H72.0681V52.8684H74.672V55.9777H73.9563L73.8431 55.3065C73.7353 55.4197 73.6159 55.5256 73.4853 55.6238C73.3545 55.7224 73.2178 55.8079 73.0749 55.8806C72.932 55.9534 72.7838 56.0113 72.6301 56.0544C72.4764 56.0976 72.3242 56.1191 72.1733 56.1191C71.7688 56.1191 71.4042 56.0442 71.0795 55.8949C70.7546 55.7451 70.4778 55.5383 70.2486 55.2741C70.0196 55.0099 69.8436 54.6973 69.7209 54.3361C69.5983 53.975 69.5371 53.5827 69.5371 53.1595C69.5371 52.9142 69.5634 52.6703 69.6158 52.4277C69.6685 52.1851 69.7451 51.9541 69.8464 51.7341C69.9473 51.5147 70.0721 51.3112 70.2203 51.1239C70.3687 50.9365 70.539 50.774 70.7318 50.6365C70.9244 50.4991 71.1382 50.3912 71.3727 50.3131C71.6072 50.2349 71.8619 50.1958 72.1369 50.1958C72.4872 50.1958 72.7999 50.2457 73.0749 50.3454C73.3499 50.4452 73.5911 50.5834 73.7986 50.76C74.0062 50.9365 74.1807 51.146 74.3221 51.3885C74.4638 51.6312 74.5763 51.8966 74.6598 52.1851H73.6693C73.5264 51.7834 73.3296 51.4835 73.0789 51.2856C72.8282 51.0872 72.5143 50.9883 72.1369 50.9883C71.8942 50.9883 71.6725 51.0457 71.4719 51.16C71.2708 51.2748 71.0977 51.4311 70.9521 51.6291C70.8066 51.8274 70.6934 52.0576 70.6126 52.3207C70.5317 52.5832 70.4912 52.8629 70.4912 53.1595Z" fill="white"/>
<path d="M81.6232 50.3372V51.1419H78.5948V52.6661H81.4371V53.4747H78.5948V55.1608H81.7526V55.9775H77.6406V50.3372H81.6232Z" fill="white"/>
<path d="M85.6126 50.3374L87.1894 54.7607L88.7986 50.3374H89.8742V55.9778H88.9199V52.254L87.6221 55.9778H86.8134L85.4912 52.2418V55.9778H84.5371V50.3374H85.6126Z" fill="white"/>
<path d="M96.6408 50.3372V51.1419H93.6123V52.6661H96.4547V53.4747H93.6123V55.1608H96.7702V55.9775H92.6582V50.3372H96.6408Z" fill="white"/>
<path d="M100.644 50.3372L103.066 54.6271V50.3372H104.02V55.9775H102.945L100.511 51.6472V55.9775H99.5566V50.3372H100.644Z" fill="white"/>
<path d="M111.226 50.3372V51.1419H109.443V55.9775H108.488V51.1419H106.701V50.3372H111.226Z" fill="white"/>
<path d="M22.5141 20.3908L11.7511 42.9502H10.7333L-0.0273438 20.389H3.72812L12.1027 38.2797L20.635 20.3908H22.5141Z" fill="white"/>
<path d="M73.468 14.749H69.7125L65.0692 4.82858L60.3381 14.7472H58.459L65.4547 0.0845194H66.4731L73.468 14.749Z" fill="white"/>
<path d="M97.5019 25.0724H98.5197V29.0572C99.2224 26.9596 101.682 25.0724 103.953 25.0724C105.006 25.0724 105.615 25.274 105.817 25.4117V28.8044C105.355 28.4581 104.656 28.0527 103.353 28.0527C101.959 28.0527 99.7627 28.7469 98.5197 30.5838V42.4414H95.127V26.0902L97.5019 25.0724Z" fill="white"/>
<path d="M34.1025 31.1089C34.1025 30.466 33.0668 26.3591 29.8987 26.3591C26.7709 26.3591 25.6708 30.3597 25.6708 31.1089H34.1025ZM30.743 42.7803C29.5898 42.7803 28.5063 42.5907 27.4918 42.1584C26.4772 41.726 25.593 41.1383 24.8392 40.3954C24.0851 39.6527 23.4892 38.7798 23.0514 37.7761C22.6132 36.7728 22.3945 35.7057 22.3945 34.5748C22.3945 33.2109 22.5942 31.95 22.9931 30.7913C23.3922 29.6329 23.9578 28.6321 24.6896 27.7894C25.4213 26.9469 26.2998 26.2872 27.3255 25.8103C28.3508 25.3338 29.4957 25.0952 30.7599 25.0952C31.8682 25.0952 32.8885 25.2923 33.8198 25.6855C34.751 26.0795 35.552 26.606 36.223 27.2656C36.8936 27.9254 37.4146 28.6875 37.7862 29.5524C38.1575 30.4171 38.3434 31.5237 38.3434 32.4659H25.6541C25.6541 33.6079 25.8009 34.4641 26.0948 35.4395C26.3884 36.4154 26.8015 37.258 27.3339 37.9673C27.8659 38.677 28.4979 39.2314 29.2297 39.6304C29.9615 40.0295 30.765 40.2025 31.6412 40.2025C33.9289 40.2025 36.2914 38.8369 37.4678 37.0937L38.3434 37.5991C37.5103 39.4777 34.8337 42.7803 30.743 42.7803Z" fill="white"/>
<path d="M117.985 32.4659C113.766 33.4179 111.215 36.0285 111.215 37.9931C111.215 39.48 112.208 40.718 114.114 40.718C115.544 40.718 117.173 39.694 117.985 38.9252V32.4659ZM117.985 42.441V40.1127C117.118 41.2352 114.986 42.7803 112.562 42.7803C109.472 42.7803 107.824 40.8964 107.824 38.566C107.824 33.9393 114.601 31.8589 117.985 31.448V29.9998C117.985 28.6397 117.337 26.2967 114.993 26.2967C112.698 26.2967 111.915 28.7295 111.915 29.9998H108.523C108.523 26.4124 112.445 25.0719 115.035 25.0719C117.541 25.0719 121.378 26.197 121.378 29.9998L121.378 42.441H117.985Z" fill="white"/>
</g>
</g>
<defs>
<clipPath id="clip0_89_606">
<rect width="121.351" height="56" fill="white" transform="translate(0 0.119141)"/>
</clipPath>
</defs>
</svg>
