<svg width="33" height="33" viewBox="0 0 33 33" fill="none" xmlns="http://www.w3.org/2000/svg">
<circle cx="16.6152" cy="16.1191" r="16" fill="#73F7AD"/>
<path d="M16.6152 12.3271C15.8652 12.3271 15.1321 12.5495 14.5085 12.9662C13.8849 13.3829 13.3989 13.9751 13.1119 14.668C12.8249 15.3608 12.7498 16.1233 12.8961 16.8588C13.0424 17.5944 13.4036 18.2701 13.9339 18.8004C14.4642 19.3307 15.1398 19.6918 15.8754 19.8381C16.611 19.9844 17.3734 19.9093 18.0663 19.6223C18.7592 19.3353 19.3514 18.8493 19.768 18.2257C20.1847 17.6022 20.4071 16.869 20.4071 16.1191C20.4071 15.6211 20.309 15.128 20.1185 14.668C19.9279 14.2079 19.6486 13.7899 19.2965 13.4378C18.9444 13.0856 18.5264 12.8063 18.0663 12.6158C17.6062 12.4252 17.1131 12.3271 16.6152 12.3271ZM16.6152 18.5808C16.1283 18.5808 15.6523 18.4364 15.2475 18.1659C14.8427 17.8954 14.5271 17.5109 14.3408 17.0611C14.1545 16.6113 14.1058 16.1163 14.2007 15.6388C14.2957 15.1612 14.5302 14.7226 14.8745 14.3783C15.2188 14.034 15.6574 13.7996 16.1349 13.7046C16.6125 13.6096 17.1074 13.6584 17.5573 13.8447C18.0071 14.031 18.3916 14.3466 18.6621 14.7514C18.9325 15.1562 19.0769 15.6322 19.0769 16.1191C19.077 16.4424 19.0133 16.7625 18.8896 17.0612C18.7659 17.3599 18.5846 17.6313 18.356 17.8599C18.1274 18.0885 17.856 18.2698 17.5573 18.3935C17.2586 18.5172 16.9385 18.5808 16.6152 18.5808Z" fill="#009A84"/>
<path d="M23.955 13.0747C23.9429 12.4621 23.827 11.856 23.612 11.2823C23.4263 10.7896 23.1356 10.3433 22.7602 9.9741C22.3916 9.59833 21.9454 9.30762 21.4527 9.12231C20.879 8.90726 20.2728 8.79128 19.6602 8.77933C18.8728 8.74348 18.6211 8.73462 16.6157 8.73462C14.6103 8.73462 14.3584 8.74293 13.5705 8.77933C12.958 8.79143 12.3519 8.90741 11.7781 9.12231C11.2853 9.30779 10.8389 9.59847 10.47 9.9741C10.094 10.3428 9.80326 10.7893 9.61821 11.2823C9.40331 11.856 9.28733 12.4621 9.27523 13.0747C9.23883 13.8621 9.23047 14.1138 9.23047 16.1192C9.23047 18.1247 9.23883 18.3764 9.27521 19.1637C9.28732 19.7763 9.4033 20.3824 9.61821 20.9562C9.80331 21.4492 10.094 21.8957 10.47 22.2644C10.8391 22.6398 11.2855 22.9304 11.7781 23.1161C12.3519 23.3309 12.958 23.4469 13.5705 23.4591C14.3584 23.4949 14.6097 23.5038 16.6151 23.5038C18.6205 23.5038 18.8723 23.4955 19.6596 23.4591C20.2722 23.447 20.8783 23.331 21.4521 23.1161C21.9427 22.9264 22.3883 22.6363 22.7603 22.2644C23.1322 21.8924 23.4223 21.4468 23.612 20.9562C23.8272 20.3825 23.9432 19.7764 23.955 19.1637C23.9908 18.3758 23.9992 18.1247 23.9992 16.1192C23.9992 14.1138 23.9908 13.8621 23.955 13.0747ZM22.6265 19.1035C22.6208 19.5718 22.5349 20.0357 22.3725 20.4749C22.2496 20.7934 22.0614 21.0826 21.8199 21.3239C21.5785 21.5652 21.2892 21.7533 20.9707 21.8761C20.5316 22.0389 20.0677 22.1248 19.5993 22.1301C18.8209 22.1659 18.5871 22.1731 16.6151 22.1731C14.643 22.1731 14.4098 22.1659 13.6317 22.1301C13.1633 22.1248 12.6994 22.0388 12.2603 21.8761C11.9395 21.7575 11.6493 21.5688 11.4109 21.3237C11.1654 21.0858 10.9766 20.7957 10.8585 20.4749C10.6957 20.0358 10.6098 19.5719 10.6045 19.1035C10.5687 18.3252 10.5615 18.0914 10.5615 16.1193C10.5615 14.1472 10.5693 13.9141 10.6045 13.135C10.6104 12.6668 10.6963 12.203 10.8585 11.7637C10.977 11.4429 11.1658 11.1527 11.4109 10.9143C11.6489 10.6687 11.9392 10.4799 12.2603 10.3619C12.6994 10.1991 13.1633 10.1132 13.6317 10.1079C14.4101 10.0721 14.6439 10.0649 16.6151 10.0649C18.5863 10.0649 18.8203 10.0727 19.5993 10.1079C20.0676 10.1138 20.5314 10.1997 20.9707 10.3619C21.2893 10.4847 21.5787 10.6729 21.8201 10.9143C22.0616 11.1557 22.2497 11.4451 22.3725 11.7637C22.5353 12.2028 22.6212 12.6667 22.6265 13.135C22.6623 13.9141 22.6695 14.1473 22.6695 16.1193C22.6695 18.0913 22.6623 18.3245 22.6265 19.1035Z" fill="#009A84"/>
<path d="M20.5571 11.2913C20.3221 11.2913 20.0964 11.3847 19.9303 11.5508C19.7642 11.717 19.6709 11.9424 19.6709 12.1773C19.6709 12.4123 19.7643 12.6376 19.9304 12.8038C20.0966 12.9699 20.3219 13.0633 20.5569 13.0633C20.7919 13.0633 21.0172 12.9699 21.1834 12.8038C21.3495 12.6376 21.4429 12.4123 21.4429 12.1773C21.4429 11.9424 21.3496 11.717 21.1835 11.5508C21.0174 11.3847 20.792 11.2913 20.5571 11.2913Z" fill="#009A84"/>
</svg>
