<svg width="33" height="33" viewBox="0 0 33 33" fill="none" xmlns="http://www.w3.org/2000/svg">
<circle cx="16.3076" cy="16.1191" r="16" fill="#73F7AD"/>
<circle cx="16.3076" cy="16.1191" r="16" fill="#73F7AD"/>
<path d="M11.029 12.4168H11.0076C10.7749 12.4308 10.5419 12.3968 10.323 12.3167C10.1041 12.2366 9.9041 12.1123 9.73542 11.9514C9.56674 11.7906 9.43303 11.5967 9.34265 11.3819C9.25226 11.167 9.20714 10.9359 9.2101 10.7028C9.21306 10.4698 9.26403 10.2398 9.35984 10.0274C9.45565 9.8149 9.59424 9.62446 9.76694 9.46795C9.93965 9.31145 10.1428 9.19222 10.3636 9.11774C10.5845 9.04325 10.8183 9.01509 11.0505 9.03502C11.2839 9.01812 11.5182 9.04968 11.7388 9.12773C11.9594 9.20577 12.1615 9.32861 12.3323 9.48852C12.5031 9.64842 12.639 9.84194 12.7314 10.0569C12.8238 10.2719 12.8707 10.5036 12.8692 10.7376C12.8677 10.9716 12.8178 11.2027 12.7227 11.4165C12.6276 11.6302 12.4892 11.822 12.3164 11.9797C12.1435 12.1374 11.9399 12.2577 11.7184 12.3329C11.4968 12.4081 11.2621 12.4367 11.029 12.4168Z" fill="#009A84"/>
<path d="M9.52246 14.6934H12.5575V23.7984H9.52246V14.6934Z" fill="#009A84"/>
<path d="M20.5237 14.6934C20.0123 14.6948 19.5078 14.8117 19.0479 15.0355C18.588 15.2594 18.1847 15.5842 17.868 15.9858V14.6934H14.833V23.7984H17.868V19.6252C17.868 19.2228 18.0279 18.8368 18.3125 18.5522C18.5971 18.2676 18.9831 18.1077 19.3856 18.1077C19.788 18.1077 20.174 18.2676 20.4586 18.5522C20.7432 18.8368 20.9031 19.2228 20.9031 19.6252V23.7984H23.9381V18.1077C23.9381 17.6594 23.8498 17.2154 23.6782 16.8011C23.5066 16.3869 23.2551 16.0105 22.9381 15.6934C22.621 15.3764 22.2446 15.1249 21.8304 14.9533C21.4161 14.7817 20.9721 14.6934 20.5237 14.6934Z" fill="#009A84"/>
</svg>
