<svg width="33" height="33" viewBox="0 0 33 33" fill="none" xmlns="http://www.w3.org/2000/svg">
<circle cx="16.1538" cy="16.1191" r="16" fill="#73F7AD"/>
<g clip-path="url(#clip0_89_699)">
<path d="M21.0341 11.8273C20.9328 11.7749 20.8343 11.7176 20.7388 11.6554C20.461 11.4718 20.2064 11.2554 19.9803 11.011C19.4147 10.3638 19.2035 9.70727 19.1256 9.24758H19.1288C19.0638 8.86602 19.0906 8.61914 19.0947 8.61914H16.5185V18.581C16.5185 18.7148 16.5185 18.847 16.5128 18.9776C16.5128 18.9938 16.5113 19.0088 16.5103 19.0263C16.5103 19.0335 16.5103 19.041 16.5088 19.0485C16.5088 19.0504 16.5088 19.0523 16.5088 19.0541C16.4816 19.4116 16.367 19.7569 16.1751 20.0596C15.9832 20.3624 15.7198 20.6133 15.4081 20.7904C15.0833 20.9752 14.7159 21.0721 14.3422 21.0716C13.1419 21.0716 12.1691 20.0929 12.1691 18.8841C12.1691 17.6754 13.1419 16.6966 14.3422 16.6966C14.5694 16.6964 14.7952 16.7322 15.0113 16.8026L15.0144 14.1795C14.3586 14.0947 13.6923 14.1469 13.0576 14.3325C12.423 14.5182 11.8337 14.8334 11.3269 15.2582C10.8828 15.644 10.5095 16.1044 10.2238 16.6185C10.115 16.806 9.7047 17.5595 9.65502 18.7823C9.62377 19.4763 9.8322 20.1954 9.93158 20.4926V20.4988C9.99408 20.6738 10.2363 21.271 10.631 21.7745C10.9492 22.1783 11.3252 22.533 11.7469 22.8273V22.821L11.7531 22.8273C13.0003 23.6748 14.3831 23.6191 14.3831 23.6191C14.6225 23.6095 15.4244 23.6191 16.335 23.1876C17.345 22.7091 17.92 21.9963 17.92 21.9963C18.2874 21.5704 18.5794 21.085 18.7838 20.561C19.0169 19.9482 19.0947 19.2132 19.0947 18.9195V13.6345C19.126 13.6532 19.5422 13.9285 19.5422 13.9285C19.5422 13.9285 20.1419 14.3129 21.0775 14.5632C21.7488 14.7413 22.6531 14.7788 22.6531 14.7788V12.2213C22.3363 12.2557 21.6928 12.1557 21.0341 11.8273Z" fill="#009A84"/>
</g>
<defs>
<clipPath id="clip0_89_699">
<rect width="16" height="16" fill="white" transform="translate(8.15381 8.11914)"/>
</clipPath>
</defs>
</svg>
