<svg width="32" height="33" viewBox="0 0 32 33" fill="none" xmlns="http://www.w3.org/2000/svg">
<circle cx="16" cy="16.1191" r="16" fill="#73F7AD"/>
<path fill-rule="evenodd" clip-rule="evenodd" d="M21.6 10.4191C20.1 8.91914 18.1 8.11914 16 8.11914C11.6 8.11914 8 11.7191 8 16.1191C8 17.5191 8.40001 18.9191 9.10001 20.1191L8 24.1191L12.2 23.0191C13.4 23.6191 14.7 24.0191 16 24.0191C20.4 24.0191 24 20.4191 24 16.0191C24 13.9191 23.1 11.9191 21.6 10.4191ZM16 22.7191C14.8 22.7191 13.6 22.4191 12.6 21.8191L12.4 21.7191L9.89999 22.4191L10.6 20.0191L10.4 19.7191C9.69999 18.6191 9.39999 17.4191 9.39999 16.2191C9.39999 12.6191 12.4 9.61914 16 9.61914C17.8 9.61914 19.4 10.3191 20.7 11.5191C22 12.8191 22.6 14.4191 22.6 16.2191C22.6 19.7191 19.7 22.7191 16 22.7191ZM19.6 17.7191C19.4 17.6191 18.4 17.1191 18.2 17.1191C18 17.0191 17.9 17.0191 17.8 17.2191C17.7 17.4191 17.3 17.8191 17.2 18.0191C17.1 18.1191 17 18.1191 16.8 18.1191C16.6 18.0191 16 17.8191 15.2 17.1191C14.6 16.6191 14.2 15.9191 14.1 15.7191C14 15.5191 14.1 15.4191 14.2 15.3191C14.3 15.2191 14.4 15.1191 14.5 15.0191C14.6 14.9191 14.6 14.8191 14.7 14.7191C14.8 14.6191 14.7 14.5191 14.7 14.4191C14.7 14.3191 14.3 13.3191 14.1 12.9191C14 12.6191 13.8 12.6191 13.7 12.6191C13.6 12.6191 13.5 12.6191 13.3 12.6191C13.2 12.6191 13 12.6191 12.8 12.8191C12.6 13.0191 12.1 13.5191 12.1 14.5191C12.1 15.5191 12.8 16.4191 12.9 16.6191C13 16.7191 14.3 18.8191 16.3 19.6191C18 20.3191 18.3 20.1191 18.7 20.1191C19.1 20.1191 19.9 19.6191 20 19.2191C20.2 18.7191 20.2 18.3191 20.1 18.3191C20 17.8191 19.8 17.8191 19.6 17.7191Z" fill="#009A84"/>
</svg>
